<svg width="67.851mm" height="74.14mm" version="1.1" viewBox="0 0 67.851 74.14" xmlns="http://www.w3.org/2000/svg">
 <g transform="translate(-22.156 -8.9177)">
  <path d="m78.708 17.526c2.7085 0.95135 3.8441 2.9272 4.3104 5.2544 0.46635 2.3271 0.09087 4.8891-0.54158 7.6942-0.63245 2.8051-1.5446 6.003-0.41553 6.549 1.1291 0.546 4.2982-1.5571 4.1187 0.87076-0.17949 2.4279-3.7077 9.3867-5.4388 15.224-1.7311 5.8375-1.665 10.554-2.7024 14.567-1.0374 4.0129-3.1783 7.3226-9.5888 8.9774-6.4105 1.6548-17.091 1.6548-23.898 0.68351-6.8073-0.97133-9.7419-2.914-11.419-7.0715-1.6773-4.1575-2.0969-10.522-3.842-10.287-1.7452 0.23434-4.8073 7.0662-4.4869 5.7326s4.027-10.841 5.2309-18.773c1.2039-7.9319-0.09509-14.288-1.09-18.933-0.99492-4.6455-1.6858-7.5807-1.9835-9.8069s-0.20902-3.6355-0.11449-5.1377c0.76311 0.03021 1.5262 0.06041 2.7435 0.42651 1.2173 0.3661 2.8761 1.0628 5.2644 2.4003 2.3883 1.3375 5.4867 3.3055 8.2786 4.0926 2.792 0.78716 5.2728 0.3905 7.1335 0.19216 1.8606-0.19833 3.1011-0.19833 5.0387-0.19833 1.9376 0 4.5724 0 6.433 0.19833 1.8606 0.19833 2.9472 0.595 4.0776 0.19522 1.1304-0.39978 2.1781-1.4669 4.991-2.455 2.813-0.98815 5.1924-1.3463 7.9009-0.39494z" fill="#64a98a" stop-color="#000000" stroke-linecap="round"/>
  <path d="m24.975 10.992-0.12305 1.9512c-0.09453 1.5021-0.19236 3.1395 0.12695 5.5273 0.32097 2.4002 1.0204 5.3321 2.0117 9.9609 0.99135 4.6288 2.2164 10.651 1.0684 18.215-0.57404 3.7821-1.7753 8.0727-2.877 11.559-0.55084 1.7429-1.0759 3.2864-1.4863 4.4863-0.4104 1.2-0.67731 1.9003-0.83594 2.5605-0.01982 0.08248-0.03871 0.16855-0.05664 0.30078-0.01793 0.13223-0.0853 0.26247 0.0293 0.76758 0.0573 0.25255 0.17575 0.69338 0.68555 1.1133 0.5098 0.41991 1.3366 0.50455 1.7637 0.39844 0.85405-0.21222 0.88882-0.47026 1.0039-0.5918 0.46035-0.48616 0.41302-0.55123 0.5625-0.80469 0.29895-0.50692 0.69137-1.2171 1.1406-1.9648 0.32488-0.54072 0.6654-1.0154 0.99609-1.4785 0.11127 0.3538 0.20103 0.5355 0.31641 0.98633 0.51049 1.9947 1.029 4.6915 1.9785 7.0449 0.94963 2.3538 2.4205 4.322 4.5762 5.6758 2.1557 1.3538 4.8656 2.1206 8.4141 2.627 7.0969 1.0127 17.751 1.0627 24.682-0.72656 6.9311-1.7892 9.8858-6.0136 11.023-10.414 1.1376-4.4005 1.0399-8.9553 2.6836-14.498 0.82184-2.7714 2.114-5.9298 3.2383-8.7109 1.1242-2.7812 2.1289-4.9008 2.2793-6.9355 0.0376-0.50868 0.0083-1.0465-0.22266-1.6133-0.23095-0.56677-0.72575-1.1111-1.248-1.3867-1.0446-0.55128-1.8247-0.36141-2.4258-0.25977-0.29149 0.04929-0.45708 0.09109-0.69336 0.14453 0.0037-0.03019-3.23e-4 -0.0295 0.0039-0.06055 0.13961-1.0249 0.51216-2.5064 0.83789-3.9512 0.65256-2.8943 1.1153-5.7201 0.55274-8.5273-0.5464-2.7266-2.2488-5.5677-5.6094-6.748-3.2021-1.1247-6.2234-0.66042-9.2266 0.39453-3.0913 1.0859-4.5522 2.3007-4.9941 2.457-0.17931 0.06341-0.35582 0.08445-0.87109 0.02539s-1.2989-0.21451-2.3281-0.32422c-2.0585-0.21942-4.7069-0.20898-6.6445-0.20898-1.9376 0-3.2981 7.21e-4 -5.252 0.20898-1.9538 0.20826-4.0537 0.52667-6.3789-0.12891-2.3259-0.65577-5.3691-2.5263-7.8438-3.9121-2.4744-1.3857-4.2585-2.147-5.666-2.5703-1.409-0.42376-2.4771-0.47956-3.2402-0.50976zm3.916 4.3984c0.05369 0.01534 0.06795 0.0024 0.125 0.01953 1.027 0.30887 2.5591 0.94124 4.8613 2.2305 2.3019 1.2891 5.4569 3.3549 8.7148 4.2734 3.2587 0.91875 6.1192 0.44426 7.8867 0.25586 1.7675-0.1884 2.8905-0.1875 4.8281-0.1875 1.9376 0 4.5579 0.01026 6.2207 0.1875 0.83139 0.08862 1.5211 0.22944 2.2969 0.31836 0.77576 0.08891 1.7071 0.1098 2.6582-0.22656 1.819-0.64327 2.4536-1.5647 4.9883-2.4551 2.6228-0.92134 4.3593-1.1725 6.5742-0.39453 2.0565 0.72233 2.6274 1.8341 3.0137 3.7617 0.37014 1.847 0.07913 4.1454-0.5332 6.8613-0.30672 1.3604-0.70613 2.8792-0.89844 4.291-0.09615 0.70591-0.15679 1.3817-0.04297 2.1367 0.11382 0.75503 0.54128 1.8458 1.6074 2.3613 1.0654 0.51523 1.7925 0.29706 2.373 0.19141 0.08132-0.0148 0.11584-0.02544 0.19336-0.04102-0.27949 0.97141-0.69032 2.3318-1.5684 4.5039-1.1175 2.7646-2.456 6.0041-3.3652 9.0703-1.8185 6.1323-1.7835 11.009-2.7207 14.635-0.93721 3.6253-2.2624 6.0225-8.1523 7.543-5.89 1.5205-16.598 1.5687-23.115 0.63867-3.2589-0.465-5.4208-1.1549-6.8535-2.0547s-2.2665-1.9815-2.9941-3.7852c-0.72782-1.804-1.2576-4.3689-1.8125-6.5371-0.27745-1.0841-0.54448-2.0637-0.99023-2.9648-0.22288-0.45059-0.48486-0.90193-0.97656-1.334-0.41768-0.36702-1.1188-0.62478-1.8184-0.64453 1.0171-3.3276 2.0645-7.1316 2.6211-10.799 1.2597-8.2996-0.11282-14.99-1.1113-19.652s-1.6826-7.6001-1.957-9.6523c-0.14838-1.1096-0.05724-1.7648-0.05273-2.5508z" fill="#64a98a" stop-color="#000000" stroke-linecap="round"/>
  <g fill="#387966">
   <path d="m72.259 47.639c-0.0283 2.4284-5.4214 3.6356-6.3359 1.3809-0.51348-1.266-1.3454-8.1067-0.11421-13.841 0.3942-1.8359 6.6098 0.58767 6.3925 2.344zm-32.177 0c0.0283 2.4284 5.4214 3.6356 6.3359 1.3809 0.51348-1.266 1.3454-8.1067 0.11421-13.841-0.3942-1.8359-6.6098 0.58767-6.3925 2.344z" stop-color="#000000"/>
   <path d="m45.344 33.26c-0.88743-0.0049-1.7909 0.223-2.6836 0.56055-0.89265 0.33754-1.7521 0.78707-2.457 1.3496s-1.4673 1.3042-1.3184 2.5078l-0.0098-0.16211-0.05859 10.127v0.01172c0.01252 1.074 0.62725 1.9525 1.3477 2.5293s1.5841 0.93892 2.4805 1.1367c0.89638 0.1978 1.8301 0.23338 2.7227 0 0.89256-0.23338 1.8165-0.8228 2.2227-1.8242 0.2328-0.57395 0.35052-1.2294 0.48828-2.1855s0.25351-2.1463 0.31445-3.4785c0.12189-2.6644 0.02649-5.8929-0.62305-8.918-0.1269-0.59098-0.58942-1.1194-1.0586-1.3594-0.46918-0.23995-0.92347-0.29246-1.3672-0.29492zm21.654 0c-0.44371 0.0025-0.89996 0.05497-1.3691 0.29492-0.46918 0.23995-0.92974 0.76839-1.0566 1.3594-0.64954 3.025-0.74689 6.2536-0.625 8.918 0.06094 1.3322 0.17864 2.5224 0.31641 3.4785s0.25548 1.6116 0.48828 2.1855c0.40617 1.0014 1.3301 1.5908 2.2227 1.8242 0.89256 0.23338 1.8243 0.1978 2.7207 0 0.89638-0.1978 1.7601-0.55992 2.4805-1.1367s1.3351-1.4553 1.3477-2.5293v-0.01172l-0.05664-10.127-0.0098 0.16211c0.14892-1.2036-0.61338-1.9453-1.3184-2.5078s-1.5644-1.0121-2.457-1.3496c-0.89265-0.33754-1.7962-0.56547-2.6836-0.56055zm-21.668 2.5293c8e-3 4.5e-5 0.0021-1.91e-4 0.0098 0 0.52084 2.6241 0.63535 5.5241 0.52539 7.9277-0.05732 1.253-0.16686 2.3707-0.29102 3.2324-0.12416 0.86173-0.30418 1.5367-0.32812 1.5957-0.05107 0.12592-0.1428 0.22962-0.51953 0.32812-0.37673 0.09851-0.96541 0.10228-1.5352-0.02344-0.56978-0.12572-1.118-0.37854-1.4453-0.64062-0.32734-0.26209-0.3968-0.44379-0.39844-0.58398l0.05859-10.176-0.01172-0.08203c0.04026 0.3254-0.02493 0.10777 0.38672-0.2207 0.41165-0.32848 1.0901-0.70058 1.7734-0.95898 0.68336-0.2584 1.3933-0.40056 1.7754-0.39844zm21.67 0c0.0092-2.63e-4 0.0021 5.4e-5 0.01172 0 0.38208-0.0021 1.092 0.14004 1.7754 0.39844s1.3618 0.63051 1.7734 0.95898c0.41165 0.32848 0.3445 0.54611 0.38476 0.2207l-0.0098 0.08203 0.05859 10.176c-0.0016 0.1402-0.0711 0.3219-0.39844 0.58398-0.32734 0.26209-0.87557 0.5149-1.4453 0.64062-0.56974 0.12572-1.1584 0.12194-1.5352 0.02344-0.37673-0.09851-0.46846-0.20221-0.51953-0.32812-0.02394-0.05903-0.20396-0.73397-0.32812-1.5957s-0.23565-1.9795-0.29297-3.2324c-0.10996-2.4036 0.0045-5.3037 0.52539-7.9277z" stop-color="#000000"/>
   <g>
    <path transform="translate(1.8521 -1.7366)" d="m34.079 76.453c-1.1632 1.1136-2.3263 2.2271-2.9859 3.0957-0.65954 0.8686-0.81545 1.4922-0.82332 2.0498-0.0079 0.55756 0.18627 1.2384 0.63731 1.5224 0.45103 0.28399 1.2558 0.48839 2.5677 0.41855 1.3119-0.06984 3.1421-0.41107 4.7744-0.97146 1.6323-0.56038 3.0666-1.3399 4.501-2.1195"/>
    <path transform="matrix(-1.0687 0 0 1 111.34 -1.8687)" d="m34.079 76.453c-1.1632 1.1136-2.3263 2.2271-2.9859 3.0957-0.65954 0.8686-0.81545 1.4922-0.82332 2.0498-0.0079 0.55756 0.18627 1.2384 0.63731 1.5224 0.45103 0.28399 1.2558 0.48839 2.5677 0.41855 1.3119-0.06984 3.1421-0.41107 4.6504-0.92468 1.5083-0.51361 2.6946-1.1996 3.881-1.8856"/>
    <path transform="translate(0 6.1739)" d="m26.557 6.7921c0.10656 1.6349 0.21311 3.2698 0.40098 4.8256s0.45735 3.0343 0.78369 4.2646c0.32634 1.2304 0.71128 2.219 1.2297 3.3393 0.51838 1.1203 1.1738 2.3797 1.7298 3.2501 0.55598 0.87038 1.0169 1.3601 1.7017 1.3526 0.68478-0.0075 1.6113-0.52226 2.5753-1.2543 0.96395-0.73202 2.0033-1.7034 2.7642-2.4649 0.76085-0.76156 1.2582-1.3296 1.7004-2.0137 0.44218-0.68406 0.84653-1.5041 1.0153-2.2705 0.16876-0.76643 0.07598-1.7598-0.538-2.4316-0.61398-0.67187-1.796-1.5142-3.0951-2.3067-1.299-0.79256-2.7155-1.5358-4.0085-2.1318-1.2929-0.59607-2.4623-1.045-3.485-1.3802-1.0226-0.33525-1.8986-0.55681-2.7745-0.77838z"/>
    <path transform="translate(.93544 6.5481)" d="m77.363 11.027c1.8236 0.66377 3.3732 2.2847 4.0849 3.8549 0.71171 1.5702 0.58524 3.0927 0.31524 4.4338s-0.68395 2.5056-2.2436 2.2214c-1.5597-0.28423-4.2653-2.0174-6.6189-3.5442s-4.3556-2.8475-4.5563-3.9869c-0.20076-1.1394 1.3997-2.0977 3.2486-2.7235 1.849-0.62582 3.9465-0.91926 5.7701-0.25549z"/>
   </g>
  </g>
  <g fill="#1b3a31" stroke-linecap="square">
   <path d="m25.793 8.9336c-1.0367 0.08407-2.1711 0.74634-2.6543 1.9121-0.48318 1.1658-0.51428 2.583-0.43359 4.1895 0.08068 1.6065 0.32142 3.3749 0.60742 5.0293 0.57201 3.3087 1.327 6.1498 2.0332 9.3516s1.3658 6.7715 1.4512 10.303c0.08534 3.5312-0.39406 7.0819-1.5566 11.926-0.58129 2.4219-1.3367 5.1772-1.9551 7.6895s-1.1134 4.7314-1.1289 6.3555c-0.0077 0.81202 0.09719 1.4817 0.4375 2.0605 0.34031 0.5788 1.0202 0.9837 1.6387 1.0176 1.237 0.06777 2.1107-0.65915 2.873-1.4609 0.53731-0.56511 0.82496-1.0184 1.1387-1.459 0.22928 0.76786 0.48727 1.9506 1.1953 3.625 0.85343 2.0182 2.2703 4.3287 4.7871 6.1172 5.0256 3.5712 13.231 4.5881 17.547 5.1777 4.316 0.58959 4.5944 0.59285 8.7617 0.09766 4.1673-0.4952 12.663-1.3248 17.154-5.7129 2.2456-2.194 3.2231-5.132 3.8809-8.2637 0.65776-3.1316 1.0099-6.5131 1.8496-9.8027 1.6794-6.5792 5.4257-13.133 6.3652-17.514 0.46975-2.1903 0.17327-3.8809-0.70898-4.9941-0.88225-1.1133-2.2361-1.4904-3.3984-1.3496-0.41788 0.05061-0.52917 0.19345-0.86523 0.31836 0.3315-0.90018 0.69968-1.8272 1.1816-3.3223 0.65928-2.045 1.2655-4.4023 1.2148-6.623-0.10122-4.4415-2.9484-7.671-6.1719-9.2363-3.2234-1.5653-6.7963-1.5343-9.6387-0.66992-2.8424 0.86442-4.716 2.4058-6.9844 2.9805-2.2684 0.57468-5.4436 0.34765-8.918 0.34766-3.4743 4e-6 -6.9836 0.24148-10.297-0.61523-3.3133-0.85672-6.7142-2.8924-9.5215-4.3242-2.8072-1.4318-4.9302-2.1726-6.8789-2.7051-0.97436-0.26625-1.9691-0.52938-3.0059-0.44531zm0.17773 2.1934c0.49286-0.03997 1.3262 0.1231 2.248 0.375 1.8437 0.5038 3.778 1.1726 6.4609 2.541s6.2043 3.5227 9.9688 4.4961c3.7644 0.97337 7.4869 0.68555 10.848 0.68555s6.625 0.30196 9.459-0.41602c2.834-0.71797 4.7262-2.2913 7.082-3.0078 2.3559-0.71646 5.4117-0.73291 8.0391 0.54297 2.6274 1.2759 4.8531 3.775 4.9336 7.3086 0.04026 1.7668-0.48436 3.9597-1.1094 5.8984-0.62501 1.9388-1.3212 3.5681-1.627 4.584-0.07644 0.25397-0.13205 0.46783-0.1543 0.7207-0.02224 0.25287-0.05936 0.65013 0.32226 1.0723 0.38163 0.42214 0.95502 0.42602 1.2109 0.375 0.25592-0.05102 0.40408-0.12445 0.55469-0.19531 0.60243-0.28345 1.2073-0.63147 1.7344-0.69531 0.52709-0.06384 1.051 0.08005 1.4102 0.5332 0.35912 0.45316 0.66679 1.3754 0.2832 3.1641-0.76718 3.5772-4.5629 10.448-6.3457 17.432-0.89139 3.492-1.2494 6.9253-1.873 9.8945-0.62365 2.9693-1.4984 5.4178-3.2656 7.1445-3.5345 3.4534-11.708 4.6044-15.875 5.0996-4.1673 0.4952-3.8891 0.49779-8.2051-0.0918-4.316-0.58959-12.343-1.7883-16.568-4.791-2.1088-1.4985-3.2852-3.4081-4.0352-5.1816-0.74998-1.7735-0.9852-3.2847-1.4414-4.3672-0.11477-0.27234-0.24293-0.52137-0.47266-0.76172-0.22972-0.24034-0.63079-0.46649-1.043-0.47461-0.82436-0.01624-1.1664 0.45601-1.4492 0.78125-0.56571 0.65049-1.0324 1.4529-1.5488 1.9961-0.465 0.48905-0.94854 0.65916-1.043 0.70312-0.04207-0.10794-0.11596-0.29511-0.11133-0.78125 0.01096-1.1499 0.45643-3.3815 1.0645-5.8516s1.3651-5.2268 1.959-7.7012c1.1878-4.9488 1.7063-8.7253 1.6152-12.492-0.09104-3.7669-0.78386-7.4671-1.502-10.723-0.71809-3.2556-1.4612-6.0581-2.0137-9.2539-0.27624-1.5979-0.50447-3.2972-0.57812-4.7637-0.07365-1.4665 0.05621-2.7283 0.26758-3.2383 0.21136-0.50996 0.30793-0.52058 0.80078-0.56055z" stop-color="#000000"/>
   <path d="m35.572 74.309-0.79102 0.76562c-0.96662 0.93544-1.9963 1.8979-2.6719 3.0586-0.33778 0.58035-0.58766 1.2002-0.61523 1.8926-0.02758 0.69233 0.26302 1.4957 0.87891 1.9922 1.2318 0.99305 2.9805 0.97587 5.0566 0.49805 2.0761-0.47782 4.3599-1.5347 6.6172-2.5625l1.002-0.45703-0.91211-2.002-1 0.45703c-2.2573 1.0278-4.4894 2.0259-6.2012 2.4199-1.7118 0.39398-3.0225 0.06384-3.1816-0.06445-0.07957-0.06415-0.06724-0.02526-0.06055-0.19336 0.0067-0.1681 0.10297-0.50494 0.31836-0.875 0.43077-0.74012 1.3342-1.6485 2.3008-2.584l0.78906-0.76367z" stop-color="#000000"/>
   <path d="m76.289 74.596-1.4121 1.6855 0.8418 0.70703c0.73844 0.61946 1.4513 1.2209 1.959 1.7598s0.75732 1.0131 0.78516 1.2031c0.02784 0.19002 0.0058 0.31069-0.26953 0.51758-0.27528 0.20688-0.85952 0.42646-1.7891 0.38281-1.8591-0.0873-5.221-1.3377-8.5566-2.6445l-1.0254-0.40039-0.80274 2.0488 1.0254 0.40039c3.3356 1.3068 6.6446 2.6703 9.2559 2.793 1.3056 0.06131 2.4048-0.21498 3.2129-0.82227 0.80806-0.60728 1.2683-1.6178 1.125-2.5957-0.14327-0.97788-0.71659-1.7083-1.3594-2.3906-0.64279-0.6823-1.408-1.318-2.1465-1.9375z" stop-color="#000000"/>
  </g>
 </g>
</svg>
