<?xml version="1.0" encoding="UTF-8" standalone="no"?>
<svg
   width="136.53mm"
   height="134.66mm"
   version="1.1"
   viewBox="0 0 136.53 134.66"
   id="svg13"
   sodipodi:docname="GATHEREND_SQUARE_RELLENADO.svg"
   inkscape:version="1.4.2 (f4327f4, 2025-05-13)"
   xmlns:inkscape="http://www.inkscape.org/namespaces/inkscape"
   xmlns:sodipodi="http://sodipodi.sourceforge.net/DTD/sodipodi-0.dtd"
   xmlns="http://www.w3.org/2000/svg"
   xmlns:svg="http://www.w3.org/2000/svg">
  <defs
     id="defs13" />
  <sodipodi:namedview
     id="namedview13"
     pagecolor="#ffffff"
     bordercolor="#000000"
     borderopacity="0.25"
     inkscape:showpageshadow="2"
     inkscape:pageopacity="0.0"
     inkscape:pagecheckerboard="0"
     inkscape:deskcolor="#d1d1d1"
     inkscape:document-units="mm"
     inkscape:zoom="0.48629417"
     inkscape:cx="340.32898"
     inkscape:cy="295.08887"
     inkscape:window-width="1366"
     inkscape:window-height="697"
     inkscape:window-x="-8"
     inkscape:window-y="-8"
     inkscape:window-maximized="1"
     inkscape:current-layer="g13" />
  <g
     transform="translate(11.498 20.62)"
     id="g13">
    <path
       d="m 11.428,-19.364 h 90.679 c 12.005,0 21.669,9.6646 21.669,21.669 v 88.808 c 0,12.005 -9.6646,21.669 -21.669,21.669 H 11.428 c -12.005,0 -21.669,-9.6646 -21.669,-21.669 V 2.305 c 0,-12.005 9.6646,-21.669 21.669,-21.669 z"
       fill="#3d6e58"
       stroke="#3d6e58"
       stroke-linecap="square"
       stroke-width="2.5121"
       id="path1"
       style="display:inline"
       sodipodi:nodetypes="sssssssss" />
    <path
       d="m 86.727967,8.2257576 c 3.534848,1.241591 5.016975,3.8202554 5.625485,6.8574474 0.60858,3.037074 0.11861,6.380713 -0.70676,10.041607 -0.82542,3.660906 -2.01596,7.834455 -0.54235,8.547024 1.47362,0.712587 5.60963,-2.032147 5.3753,1.136418 -0.23434,3.168639 -4.83895,12.250478 -7.09806,19.868662 -2.25928,7.618452 -2.173044,13.773913 -3.526918,19.011228 -1.353916,5.237179 -4.147999,9.556631 -12.514256,11.716364 -8.366275,2.159641 -22.305265,2.159641 -31.189007,0.892014 -8.884129,-1.26773 -12.714035,-3.803128 -14.902799,-9.228968 -2.189024,-5.425907 -2.736643,-13.732148 -5.014151,-13.425443 -2.277641,0.305829 -6.273951,9.222015 -5.855803,7.481541 0.418156,-1.740458 5.25559,-14.148459 6.826791,-24.500414 1.571195,-10.35183 -0.124101,-18.647105 -1.422545,-24.709242 -1.298463,-6.06278 -2.200122,-9.893474 -2.588648,-12.7988564 -0.38852,-2.905399 -0.272784,-4.744658 -0.149419,-6.705162 0.995935,0.03948 1.99183,0.07883 3.580512,0.556643 1.588682,0.477786 3.753566,1.387047 6.870506,3.132597 3.116939,1.745557 7.160628,4.3139704 10.804303,5.3412074 3.643802,1.027304 6.881471,0.509639 9.309844,0.250782 2.428254,-0.258835 4.04722,-0.258835 6.575946,-0.258835 2.528746,0 5.967387,0 8.395641,0.258835 2.428247,0.258838 3.846352,0.776522 5.321616,0.254777 1.47527,-0.521748 2.842619,-1.914426 6.513702,-3.2039934 3.671206,-1.28962 6.776538,-1.757037 10.311335,-0.515427 z"
       fill="#64a98a"
       stop-color="#000000"
       stroke-linecap="round"
       id="path2"
       style="stroke-width:1.30514" />
    <path
       d="M 16.601702,-0.30169342 16.441113,2.2447986 c -0.123371,1.960375 -0.251048,4.097319 0.165677,7.213607 0.418895,3.1324784 1.331717,6.9588634 2.62545,12.9998564 1.293791,6.040991 2.892603,13.900494 1.394358,23.772177 -0.749172,4.93598 -2.316926,10.535592 -3.754738,15.085521 -0.718892,2.274634 -1.404146,4.289033 -1.939754,5.855012 -0.535607,1.56611 -0.883951,2.480055 -1.090977,3.341676 -0.02582,0.107646 -0.0505,0.219978 -0.07395,0.392554 -0.02339,0.172561 -0.111345,0.342544 0.03825,1.001763 0.07482,0.329588 0.229372,0.904918 0.894704,1.452952 0.665331,0.548011 1.744383,0.658473 2.301786,0.519994 1.114622,-0.276967 1.159984,-0.613732 1.310176,-0.772351 0.600796,-0.634492 0.539028,-0.719412 0.734111,-1.050194 0.390156,-0.66157 0.902299,-1.588422 1.488585,-2.564237 0.423998,-0.705684 0.868406,-1.325183 1.300002,-1.929573 0.145201,0.461745 0.262346,0.698875 0.412924,1.287245 0.666237,2.603266 1.342936,6.122825 2.582118,9.194216 1.23935,3.07195 3.158963,5.640643 5.972348,7.407386 2.813378,1.766919 6.350036,2.767667 10.981142,3.428507 9.262075,1.32167 23.166616,1.38682 32.212186,-0.948249 9.045692,-2.33501 12.901816,-7.84825 14.385904,-13.59117 1.484813,-5.743035 1.357191,-11.68745 3.502457,-18.921167 1.07258,-3.616916 2.75886,-7.738908 4.2263,-11.368497 1.46714,-3.629711 2.77835,-6.39597 2.97465,-9.051433 0.0482,-0.66387 0.0115,-1.36578 -0.29054,-2.105495 -0.30138,-0.739685 -0.94713,-1.45009 -1.6287,-1.80977 -1.36351,-0.719473 -2.38158,-0.471668 -3.16602,-0.339026 -0.38039,0.06433 -0.59658,0.118865 -0.9049,0.18863 0.005,-0.03936 -4.4e-4,-0.03853 0.005,-0.079 0.18211,-1.337591 0.6683,-3.271073 1.0934,-5.156666 0.85168,-3.777314 1.45566,-7.46524 0.72147,-11.12888 -0.7132,-3.558456 -2.93495,-7.2663364 -7.320895,-8.8067364 -4.178954,-1.467829 -8.122006,-0.861911 -12.04146,0.514898 -4.034416,1.417192 -5.941023,3.002617 -6.517724,3.206594 -0.234018,0.08279 -0.464386,0.110179 -1.13685,0.03313 -0.672474,-0.07706 -1.69518,-0.279949 -3.038377,-0.423135 -2.686523,-0.28636 -6.14292,-0.272737 -8.671657,-0.272737 -2.528751,0 -4.304326,9.08e-4 -6.854334,0.272737 -2.549869,0.271803 -5.290425,0.687356 -8.325013,-0.168234 -3.035452,-0.855821 -7.007085,-3.297032 -10.236788,-5.10562 -3.229307,-1.808456 -5.557729,-2.802022 -7.394629,-3.35446402 -1.838882,-0.553048 -3.232848,-0.625868 -4.228757,-0.665275 z m 5.110727,5.74030302 c 0.07004,0.02002 0.08865,0.0033 0.163134,0.02547 1.340328,0.403102 3.339849,1.2284 6.344426,2.911 3.00419,1.6823894 7.121741,4.3784374 11.373587,5.5771644 4.252888,1.199046 7.986089,0.579796 10.292835,0.333914 2.306743,-0.245882 3.772357,-0.244699 6.301098,-0.244699 2.528741,0 5.948467,0.0134 8.118555,0.244699 1.085049,0.115684 1.98517,0.299437 2.997666,0.415491 1.012431,0.116011 2.227907,0.143294 3.469185,-0.295684 2.373953,-0.839525 3.202162,-2.04207 6.510169,-3.204116 3.422993,-1.2024354 5.68927,-1.5302164 8.579926,-0.514903 2.683936,0.942707 3.429036,2.393663 3.93319,4.909352 0.482972,2.410495 0.103239,5.410109 -0.695998,8.954609 -0.400142,1.77544 -0.921571,3.757599 -1.172424,5.600126 -0.125494,0.921278 -0.204652,1.803244 -0.05534,2.788582 0.148486,0.985378 0.706346,2.408933 2.097774,3.081708 1.39046,0.67242 2.33941,0.387689 3.09693,0.249807 0.10616,-0.01936 0.15118,-0.03318 0.25244,-0.05352 -0.36481,1.267777 -0.90091,3.04321 -2.04692,5.877986 -1.458413,3.608051 -3.205279,7.835882 -4.391877,11.837538 -2.373321,8.003195 -2.327617,14.367722 -3.550756,19.09997 -1.22315,4.73134 -2.95264,7.859898 -10.63947,9.844312 -7.686976,1.98441 -21.661864,2.047325 -30.167122,0.83354 -4.2532,-0.60697 -7.074666,-1.50729 -8.944472,-2.681573 -1.8699,-1.17437 -2.958076,-2.586082 -3.907661,-4.94007 -0.949874,-2.354385 -1.64129,-5.701799 -2.365481,-8.531488 -0.362099,-1.414854 -0.710591,-2.693314 -1.292327,-3.869328 -0.290891,-0.588063 -0.632793,-1.177101 -1.274513,-1.74099 -0.545168,-0.47899 -1.460198,-0.815387 -2.373247,-0.841164 1.327346,-4.342811 2.694287,-9.30737 3.420703,-14.093638 1.64368,-10.831706 -0.147575,-19.563273 -1.450687,-25.647594 -1.303094,-6.084317 -2.195932,-9.918802 -2.554054,-12.5970984 -0.193642,-1.448127 -0.07466,-2.303217 -0.06883,-3.329025 z"
       fill="#64a98a"
       stop-color="#000000"
       stroke-linecap="round"
       id="path3"
       style="stroke-width:1.30514" />
    <g
       fill="#387966"
       id="g10"
       transform="matrix(1.3050884,0,0,1.3050884,-15.992871,-14.647221)">
      <path
         d="m 72.259,47.639 c -0.0283,2.4284 -5.4214,3.6356 -6.3359,1.3809 -0.51348,-1.266 -1.3454,-8.1067 -0.11421,-13.841 0.3942,-1.8359 6.6098,0.58767 6.3925,2.344 z m -32.177,0 c 0.0283,2.4284 5.4214,3.6356 6.3359,1.3809 0.51348,-1.266 1.3454,-8.1067 0.11421,-13.841 -0.3942,-1.8359 -6.6098,0.58767 -6.3925,2.344 z"
         stop-color="#000000"
         id="path4" />
      <path
         d="m 45.344,33.26 c -0.88743,-0.0049 -1.7909,0.223 -2.6836,0.56055 -0.89265,0.33754 -1.7521,0.78707 -2.457,1.3496 -0.7049,0.56253 -1.4673,1.3042 -1.3184,2.5078 l -0.0098,-0.16211 -0.05859,10.127 v 0.01172 c 0.01252,1.074 0.62725,1.9525 1.3477,2.5293 0.72045,0.5768 1.5841,0.93892 2.4805,1.1367 0.89638,0.1978 1.8301,0.23338 2.7227,0 0.89256,-0.23338 1.8165,-0.8228 2.2227,-1.8242 0.2328,-0.57395 0.35052,-1.2294 0.48828,-2.1855 0.13776,-0.9561 0.25351,-2.1463 0.31445,-3.4785 0.12189,-2.6644 0.02649,-5.8929 -0.62305,-8.918 -0.1269,-0.59098 -0.58942,-1.1194 -1.0586,-1.3594 -0.46918,-0.23995 -0.92347,-0.29246 -1.3672,-0.29492 z m 21.654,0 c -0.44371,0.0025 -0.89996,0.05497 -1.3691,0.29492 -0.46918,0.23995 -0.92974,0.76839 -1.0566,1.3594 -0.64954,3.025 -0.74689,6.2536 -0.625,8.918 0.06094,1.3322 0.17864,2.5224 0.31641,3.4785 0.13777,0.9561 0.25548,1.6116 0.48828,2.1855 0.40617,1.0014 1.3301,1.5908 2.2227,1.8242 0.89256,0.23338 1.8243,0.1978 2.7207,0 0.89638,-0.1978 1.7601,-0.55992 2.4805,-1.1367 0.7204,-0.57678 1.3351,-1.4553 1.3477,-2.5293 V 47.6428 l -0.05664,-10.127 -0.0098,0.16211 c 0.14892,-1.2036 -0.61338,-1.9453 -1.3184,-2.5078 -0.70502,-0.5625 -1.5644,-1.0121 -2.457,-1.3496 -0.89265,-0.33754 -1.7962,-0.56547 -2.6836,-0.56055 z M 45.33,35.7893 c 0.008,4.5e-5 0.0021,-1.91e-4 0.0098,0 0.52084,2.6241 0.63535,5.5241 0.52539,7.9277 -0.05732,1.253 -0.16686,2.3707 -0.29102,3.2324 -0.12416,0.86173 -0.30418,1.5367 -0.32812,1.5957 -0.05107,0.12592 -0.1428,0.22962 -0.51953,0.32812 -0.37673,0.09851 -0.96541,0.10228 -1.5352,-0.02344 -0.56978,-0.12572 -1.118,-0.37854 -1.4453,-0.64062 -0.32734,-0.26209 -0.3968,-0.44379 -0.39844,-0.58398 l 0.05859,-10.176 -0.01172,-0.08203 c 0.04026,0.3254 -0.02493,0.10777 0.38672,-0.2207 0.41165,-0.32848 1.0901,-0.70058 1.7734,-0.95898 0.68336,-0.2584 1.3933,-0.40056 1.7754,-0.39844 z m 21.67,0 c 0.0092,-2.63e-4 0.0021,5.4e-5 0.01172,0 0.38208,-0.0021 1.092,0.14004 1.7754,0.39844 0.6834,0.2584 1.3618,0.63051 1.7734,0.95898 0.41165,0.32848 0.3445,0.54611 0.38476,0.2207 l -0.0098,0.08203 0.05859,10.176 c -0.0016,0.1402 -0.0711,0.3219 -0.39844,0.58398 -0.32734,0.26209 -0.87557,0.5149 -1.4453,0.64062 -0.56974,0.12572 -1.1584,0.12194 -1.5352,0.02344 -0.37673,-0.09851 -0.46846,-0.20221 -0.51953,-0.32812 -0.02394,-0.05903 -0.20396,-0.73397 -0.32812,-1.5957 -0.12416,-0.86173 -0.23565,-1.9795 -0.29297,-3.2324 -0.10996,-2.4036 0.0045,-5.3037 0.52539,-7.9277 z"
         stop-color="#000000"
         id="path5" />
      <g
         id="g9">
        <path
           transform="translate(1.8521,-1.7366)"
           d="m 34.079,76.453 c -1.1632,1.1136 -2.3263,2.2271 -2.9859,3.0957 -0.65954,0.8686 -0.81545,1.4922 -0.82332,2.0498 -0.0079,0.55756 0.18627,1.2384 0.63731,1.5224 0.45103,0.28399 1.2558,0.48839 2.5677,0.41855 1.3119,-0.06984 3.1421,-0.41107 4.7744,-0.97146 1.6323,-0.56038 3.0666,-1.3399 4.501,-2.1195"
           id="path6" />
        <path
           transform="matrix(-1.0687,0,0,1,111.34,-1.8687)"
           d="m 34.079,76.453 c -1.1632,1.1136 -2.3263,2.2271 -2.9859,3.0957 -0.65954,0.8686 -0.81545,1.4922 -0.82332,2.0498 -0.0079,0.55756 0.18627,1.2384 0.63731,1.5224 0.45103,0.28399 1.2558,0.48839 2.5677,0.41855 1.3119,-0.06984 3.1421,-0.41107 4.6504,-0.92468 1.5083,-0.51361 2.6946,-1.1996 3.881,-1.8856"
           id="path7" />
        <path
           transform="translate(0,6.1739)"
           d="m 26.557,6.7921 c 0.10656,1.6349 0.21311,3.2698 0.40098,4.8256 0.18787,1.5558 0.45735,3.0343 0.78369,4.2646 0.32634,1.2304 0.71128,2.219 1.2297,3.3393 0.51838,1.1203 1.1738,2.3797 1.7298,3.2501 0.55598,0.87038 1.0169,1.3601 1.7017,1.3526 0.68478,-0.0075 1.6113,-0.52226 2.5753,-1.2543 0.96395,-0.73202 2.0033,-1.7034 2.7642,-2.4649 0.76085,-0.76156 1.2582,-1.3296 1.7004,-2.0137 0.44218,-0.68406 0.84653,-1.5041 1.0153,-2.2705 0.16876,-0.76643 0.07598,-1.7598 -0.538,-2.4316 -0.61398,-0.67187 -1.796,-1.5142 -3.0951,-2.3067 -1.299,-0.79256 -2.7155,-1.5358 -4.0085,-2.1318 -1.2929,-0.59607 -2.4623,-1.045 -3.485,-1.3802 -1.0226,-0.33525 -1.8986,-0.55681 -2.7745,-0.77838 z"
           id="path8" />
        <path
           transform="translate(0.93544,6.5481)"
           d="m 77.363,11.027 c 1.8236,0.66377 3.3732,2.2847 4.0849,3.8549 0.71171,1.5702 0.58524,3.0927 0.31524,4.4338 -0.27,1.3411 -0.68395,2.5056 -2.2436,2.2214 -1.5597,-0.28423 -4.2653,-2.0174 -6.6189,-3.5442 -2.3536,-1.5268 -4.3556,-2.8475 -4.5563,-3.9869 -0.20076,-1.1394 1.3997,-2.0977 3.2486,-2.7235 1.849,-0.62582 3.9465,-0.91926 5.7701,-0.25549 z"
           id="path9" />
      </g>
    </g>
    <g
       fill="#1b3a31"
       stroke-linecap="square"
       id="g12"
       transform="matrix(1.3050884,0,0,1.3050884,-15.992871,-14.647221)">
      <path
         d="m 25.793,8.9336 c -1.0367,0.08407 -2.1711,0.74634 -2.6543,1.9121 -0.48318,1.1658 -0.51428,2.583 -0.43359,4.1895 0.08068,1.6065 0.32142,3.3749 0.60742,5.0293 0.57201,3.3087 1.327,6.1498 2.0332,9.3516 0.7062,3.2018 1.3658,6.7715 1.4512,10.303 0.08534,3.5312 -0.39406,7.0819 -1.5566,11.926 -0.58129,2.4219 -1.3367,5.1772 -1.9551,7.6895 -0.6184,2.5123 -1.1134,4.7314 -1.1289,6.3555 -0.0077,0.81202 0.09719,1.4817 0.4375,2.0605 0.34031,0.5788 1.0202,0.9837 1.6387,1.0176 1.237,0.06777 2.1107,-0.65915 2.873,-1.4609 0.53731,-0.56511 0.82496,-1.0184 1.1387,-1.459 0.22928,0.76786 0.48727,1.9506 1.1953,3.625 0.85343,2.0182 2.2703,4.3287 4.7871,6.1172 5.0256,3.5712 13.231,4.5881 17.547,5.1777 4.316,0.58959 4.5944,0.59285 8.7617,0.09766 4.1673,-0.4952 12.663,-1.3248 17.154,-5.7129 2.2456,-2.194 3.2231,-5.132 3.8809,-8.2637 0.65776,-3.1316 1.0099,-6.5131 1.8496,-9.8027 1.6794,-6.5792 5.4257,-13.133 6.3652,-17.514 0.46975,-2.1903 0.17327,-3.8809 -0.70898,-4.9941 -0.88225,-1.1133 -2.2361,-1.4904 -3.3984,-1.3496 -0.41788,0.05061 -0.52917,0.19345 -0.86523,0.31836 0.3315,-0.90018 0.69968,-1.8272 1.1816,-3.3223 0.65928,-2.045 1.2655,-4.4023 1.2148,-6.623 -0.10122,-4.4415 -2.9484,-7.671 -6.1719,-9.2363 -3.2234,-1.5653 -6.7963,-1.5343 -9.6387,-0.66992 -2.8424,0.86442 -4.716,2.4058 -6.9844,2.9805 -2.2684,0.57468 -5.4436,0.34765 -8.918,0.34766 -3.4743,4e-6 -6.9836,0.24148 -10.297,-0.61523 -3.3133,-0.85672 -6.7142,-2.8924 -9.5215,-4.3242 -2.8072,-1.4318 -4.9302,-2.1726 -6.8789,-2.7051 -0.97436,-0.26625 -1.9691,-0.52938 -3.0059,-0.44531 z m 0.17773,2.1934 c 0.49286,-0.03997 1.3262,0.1231 2.248,0.375 1.8437,0.5038 3.778,1.1726 6.4609,2.541 2.6829,1.3684 6.2043,3.5227 9.9688,4.4961 3.7644,0.97337 7.4869,0.68555 10.848,0.68555 3.3611,0 6.625,0.30196 9.459,-0.41602 2.834,-0.71797 4.7262,-2.2913 7.082,-3.0078 2.3559,-0.71646 5.4117,-0.73291 8.0391,0.54297 2.6274,1.2759 4.8531,3.775 4.9336,7.3086 0.04026,1.7668 -0.48436,3.9597 -1.1094,5.8984 -0.62501,1.9388 -1.3212,3.5681 -1.627,4.584 -0.07644,0.25397 -0.13205,0.46783 -0.1543,0.7207 -0.02224,0.25287 -0.05936,0.65013 0.32226,1.0723 0.38163,0.42214 0.95502,0.42602 1.2109,0.375 0.25592,-0.05102 0.40408,-0.12445 0.55469,-0.19531 0.60243,-0.28345 1.2073,-0.63147 1.7344,-0.69531 0.52709,-0.06384 1.051,0.08005 1.4102,0.5332 0.35912,0.45316 0.66679,1.3754 0.2832,3.1641 -0.76718,3.5772 -4.5629,10.448 -6.3457,17.432 -0.89139,3.492 -1.2494,6.9253 -1.873,9.8945 -0.62365,2.9693 -1.4984,5.4178 -3.2656,7.1445 -3.5345,3.4534 -11.708,4.6044 -15.875,5.0996 -4.1673,0.4952 -3.8891,0.49779 -8.2051,-0.0918 -4.316,-0.58959 -12.343,-1.7883 -16.568,-4.791 -2.1088,-1.4985 -3.2852,-3.4081 -4.0352,-5.1816 -0.74998,-1.7735 -0.9852,-3.2847 -1.4414,-4.3672 -0.11477,-0.27234 -0.24293,-0.52137 -0.47266,-0.76172 -0.22972,-0.24034 -0.63079,-0.46649 -1.043,-0.47461 -0.82436,-0.01624 -1.1664,0.45601 -1.4492,0.78125 -0.56571,0.65049 -1.0324,1.4529 -1.5488,1.9961 -0.465,0.48905 -0.94854,0.65916 -1.043,0.70312 -0.04207,-0.10794 -0.11596,-0.29511 -0.11133,-0.78125 0.01096,-1.1499 0.45643,-3.3815 1.0645,-5.8516 0.60807,-2.4701 1.3651,-5.2268 1.959,-7.7012 1.1878,-4.9488 1.7063,-8.7253 1.6152,-12.492 -0.09104,-3.7669 -0.78386,-7.4671 -1.502,-10.723 -0.71809,-3.2556 -1.4612,-6.0581 -2.0137,-9.2539 -0.27624,-1.5979 -0.50447,-3.2972 -0.57812,-4.7637 -0.07365,-1.4665 0.05621,-2.7283 0.26758,-3.2383 0.21136,-0.50996 0.30793,-0.52058 0.80078,-0.56055 z"
         stop-color="#000000"
         id="path10" />
      <path
         d="m 35.572,74.309 -0.79102,0.76562 c -0.96662,0.93544 -1.9963,1.8979 -2.6719,3.0586 -0.33778,0.58035 -0.58766,1.2002 -0.61523,1.8926 -0.02758,0.69233 0.26302,1.4957 0.87891,1.9922 1.2318,0.99305 2.9805,0.97587 5.0566,0.49805 2.0761,-0.47782 4.3599,-1.5347 6.6172,-2.5625 l 1.002,-0.45703 -0.91211,-2.002 -1,0.45703 c -2.2573,1.0278 -4.4894,2.0259 -6.2012,2.4199 -1.7118,0.39398 -3.0225,0.06384 -3.1816,-0.06445 -0.07957,-0.06415 -0.06724,-0.02526 -0.06055,-0.19336 0.0067,-0.1681 0.10297,-0.50494 0.31836,-0.875 0.43077,-0.74012 1.3342,-1.6485 2.3008,-2.584 l 0.78906,-0.76367 z"
         stop-color="#000000"
         id="path11" />
      <path
         d="m 76.289,74.596 -1.4121,1.6855 0.8418,0.70703 c 0.73844,0.61946 1.4513,1.2209 1.959,1.7598 0.5077,0.5389 0.75732,1.0131 0.78516,1.2031 0.02784,0.19002 0.0058,0.31069 -0.26953,0.51758 -0.27528,0.20688 -0.85952,0.42646 -1.7891,0.38281 -1.8591,-0.0873 -5.221,-1.3377 -8.5566,-2.6445 l -1.0254,-0.40039 -0.80274,2.0488 1.0254,0.40039 c 3.3356,1.3068 6.6446,2.6703 9.2559,2.793 1.3056,0.06131 2.4048,-0.21498 3.2129,-0.82227 0.80806,-0.60728 1.2683,-1.6178 1.125,-2.5957 -0.14327,-0.97788 -0.71659,-1.7083 -1.3594,-2.3906 -0.64279,-0.6823 -1.408,-1.318 -2.1465,-1.9375 z"
         stop-color="#000000"
         id="path12" />
    </g>
  </g>
</svg>
