<svg width="98.119mm" height="78.106mm" version="1.1" viewBox="0 0 98.119 78.106" xmlns="http://www.w3.org/2000/svg">
 <path d="m68.851 7.6186c0.82632-0.06236 2.4789-0.18708 3.96 0.07796 1.4811 0.26505 2.7907 0.91983 3.8353 2.058 1.0446 1.1381 1.8241 2.7595 2.1047 4.1939 0.28064 1.4344 0.06238 2.6816-0.31181 3.9912-0.37418 1.3096-0.90425 2.6816-1.4278 3.8087s-1.0404 2.0092-1.1642 2.8327c-0.12376 0.82348 0.21655 1.7896 0.65475 2.3525 0.4382 0.5629 1.5086 1.4508 2.4446 1.8514s1.6396 0.36914 2.4213 0.33418c-0.3654 0.5743-0.69507 1.0925-1.4987 2.042s-2.1587 2.3749-1.6489 2.7087c0.5098 0.33386 4.0015 0.12442 5.8908 0.0045 1.8893-0.11996 3.0449-0.20255 4.2004-0.28514-1.1081 1.0709-2.2162 2.1418-3.3184 3.0054-1.1022 0.86354-2.1984 1.5196-3.5414 2.1504-1.343 0.63075-2.9327 1.2361-2.8296 1.8615s1.8991 1.2708 3.9561 1.4258c2.0571 0.15499 4.375-0.18042 5.8207-0.41429 1.4457-0.23386 2.0189-0.36615 2.5922-0.49845-1.0142 1.0583-2.0285 2.1167-3.0648 2.8663-1.0363 0.74965-2.0946 1.1906-3.153 1.4552s-2.1167 0.35278-2.293 0.92605c-0.17638 0.57327 0.52916 1.6316 1.2149 2.6135 0.68573 0.98196 1.3516 1.8875 2.3251 2.5323 0.97348 0.64477 2.2522 1.028 3.5786 1.2527s2.691 0.28914 4.058 0.35372c-1.5091 1.5875-3.0181 3.175-4.8956 4.6146-1.8775 1.4396-4.1233 2.7314-5.8195 3.5095-1.6962 0.77816-2.8427 1.0427-3.0272 1.8625-0.18454 0.81977 0.58613 2.1827 1.5916 3.1907 1.0054 1.008 2.2109 1.6262 3.427 2.2498-2.4945 0.37418-4.989 0.74835-6.7664 0.77953-1.7774 0.03118-2.8375-0.28063-4.1472-0.88867s-2.8687-1.5123-5.2852-0.75679c-2.4165 0.7555-5.6903 3.1707-7.7618 4.2123s-2.9408 0.70952-3.8733 0.79481c-0.93252 0.08529-1.9282 0.58792-3.2796 0.62166-1.3513 0.03374-3.0582-0.40141-5.0867-0.44707s-4.3785 0.29816-6.429 0.38636c-2.0506 0.0882-3.8015-0.07925-5.2392-0.18502-1.4377-0.10577-2.5622-0.14987-4.2269-0.95466-1.6647-0.80479-3.8695-2.3702-5.7558-3.0548-1.8863-0.68461-3.4539-0.4884-4.9642-0.21768-1.5104 0.27072-2.9633 0.61592-4.4927 0.7186-1.5294 0.10268-3.1351-0.03717-4.7409-0.17703 2.1349-1.6142 4.2699-3.2285 5.624-4.4986 1.3541-1.2702 1.9274-2.1962 2.2581-2.7033s0.41892-0.59531-0.63944-0.83785-3.2632-0.63941-4.9389-1.0583c-1.6757-0.41897-2.8222-0.85993-4.0569-1.3671-1.2347-0.50712-2.5576-1.0804-3.5278-1.5214-0.97014-0.44098-1.5875-0.74965-2.0505-1.0142-0.46302-0.26458-0.7717-0.48507-1.0804-0.70555 1.8962-0.57326 3.7924-1.1465 5.424-1.7639 1.6316-0.61737 2.9986-1.2788 4.2554-1.9403 1.2568-0.66146 2.4033-1.3229 3.2411-1.6757 0.83785-0.35278 1.367-0.39687 0.55119-0.74966-0.81582-0.35278-2.9765-1.0142-4.5641-1.6977s-2.6017-1.3891-3.616-2.0946c1.8637-0.74546 4.0139-1.6056 5.667-2.3241s3.0201-1.38 3.7477-1.7328 0.81579-0.39687 0.52916-0.66146c-0.28664-0.26459-0.94807-0.74964-1.6095-1.3119-0.66147-0.56225-1.3229-1.2016-2.0079-2.0365-0.68495-0.83486-1.3934-1.8651-2.1018-2.8954 1.13-0.09641 2.26-0.19282 3.3419-0.53758s2.1154-0.93784 3.2327-1.583 2.3181-1.3423 2.414-1.7471c0.09588-0.40483-0.91322-0.51733-1.6713-0.80133s-1.2653-0.73951-1.7724-1.195c0.43656-0.09417 0.87312-0.18834 1.4718-0.38257 0.59867-0.19424 1.3594-0.48853 1.4422-1.7861 0.08273-1.2975-0.51257-3.5982-0.94464-5.3378-0.43207-1.7396-0.70087-2.9178-0.92158-4.058s-0.39331-2.2422-0.60089-3.4435c-0.20758-1.2013-0.4501-2.5017-0.52838-3.5673-0.07828-1.0655 0.0077-1.8961 0.09368-2.7266 0.76311 0.03021 1.5262 0.06041 3.01 0.55476 1.4838 0.49435 3.6882 1.4528 5.4179 2.286 1.7297 0.83327 2.9845 1.5413 4.267 2.2613 1.2825 0.71998 2.508 1.4046 3.891 1.5536 1.383 0.14907 2.588-0.27358 3.4218-0.40183s1.2084 0.06458 1.2839-0.07108c0.07545-0.13565-0.15254-0.59385-0.40669-1.1046-0.25415-0.51078-0.52245-1.05-1.0814-1.7992-0.55898-0.74917-1.3238-1.5949-2.1202-2.4756 0.94329 0.11803 1.8624 0.23303 3.2323 0.27327s3.3981-0.0062 4.133-0.3584c0.7349-0.35222 0.86364-1.3597 0.47183-2.0788-0.39181-0.7191-1.2826-1.317-2.1736-1.9149 1.0957-0.13763 2.1912-0.27523 3.2581-0.62723 1.0669-0.352 2.1044-0.91809 3.1421-1.4843 1.1923 0.54234 2.3858 1.0853 3.3979 1.4075 1.012 0.32221 1.8468 0.42506 2.6807 0.5278-0.82931 0.60504-1.6588 1.2102-1.9344 1.8376-0.27554 0.62734 0.05767 1.406 0.6127 1.7431 0.55503 0.33709 2.0992 0.60323 2.7216 0.68629 0.62239 0.08306 1.1433 0.10252 1.501 0.10734 0.35767 0.0048 0.59357-0.0023 0.83783-0.0097-0.76598 0.70886-1.495 1.3835-2.0477 2.1592-0.5527 0.77566-0.88388 1.6607-0.95576 2.2032-0.07188 0.54254 0.05913 1.2342 0.48045 1.7927 0.42132 0.55847 1.1532 1.095 2.1049 0.66646 0.95171-0.4285 2.001-1.6747 3.7651-3.27 1.7641-1.5953 3.6656-3.0001 4.6164-3.7026 0.95082-0.70246 0.95082-0.70246 1.7771-0.76482z" fill="#64a98a" stop-color="#000000" stroke-linecap="round"/>
 <path d="m49.213 0-0.87695 0.47852c-1.0377 0.56621-1.9831 1.0688-2.8105 1.3418-0.8274 0.27297-1.7851 0.40338-2.8809 0.54102l-5.3047 0.66602 4.4395 2.9785c0.48761 0.32726 0.5647 0.43173 0.83789 0.66406-0.67324 0.04341-1.4675 0.04775-2.0957 0.0293-1.2844-0.03773-2.0997-0.14174-3.043-0.25976l-5.3438-0.66797 3.6113 3.9941c0.79642 0.88071 1.5325 1.7035 2 2.3301 0.0012 0.0016 7.88e-4 0.0023 2e-3 0.0039-0.44959 0.08072-0.98729 0.23419-1.4023 0.18945-0.85952-0.09264-1.8448-0.58992-3.125-1.3086-1.28-0.71858-2.5909-1.4589-4.3789-2.3203-1.788-0.86138-3.9966-1.8292-5.6523-2.3809-1.6557-0.55162-2.8014-0.62604-3.5645-0.65625l-1.875-0.07422-0.19336 1.8672c-0.08598 0.83055-0.18934 1.8301-0.09766 3.0781 0.09168 1.248 0.34648 2.5793 0.55078 3.7617 0.2043 1.1824 0.37994 2.2972 0.60938 3.4824 0.22944 1.1853 0.50714 2.4039 0.94336 4.1602 0.43622 1.7563 0.92504 4.1888 0.89062 4.7285-0.02989 0.01325 0.03865-0.02173-0.06445 0.01172-0.50768 0.16472-0.83883 0.23591-1.2754 0.33008l-3.8301 0.82617 2.9141 2.6172c0.21957 0.19721 0.71848 0.43734 1.043 0.68359-0.94965 0.54181-1.8062 1.022-2.5156 1.248-0.80073 0.25518-1.7743 0.35476-2.9043 0.45117l-3.4277 0.29297 1.9492 2.832c0.70842 1.0303 1.4353 2.0954 2.2031 3.0312 0.61662 0.75158 1.2191 1.3044 1.8145 1.8418-0.60055 0.28014-0.96769 0.46981-1.7246 0.79883-1.6067 0.69841-3.7496 1.5553-5.6133 2.3008l-3.4473 1.3789 3.0488 2.1191c1.0142 0.70556 2.2043 1.5322 3.9668 2.291 0.36601 0.15759 0.55419 0.20064 0.94727 0.35156-0.1117 0.05985-0.20312 0.10444-0.31641 0.16406-1.2141 0.63901-2.4961 1.259-4.0313 1.8398-1.5352 0.58089-3.3987 1.1474-5.2949 1.7207l-3.8945 1.1758 3.3105 2.3652c0.30868 0.22048 0.70386 0.50238 1.25 0.81445 0.54614 0.31208 1.2176 0.64541 2.2168 1.0996 0.99924 0.4542 2.3334 1.0312 3.5938 1.5488 1.2603 0.51763 2.5442 1.012 4.332 1.459 1.0479 0.26197 1.9089 0.42139 2.918 0.625-0.20903 0.22589-0.18386 0.296-0.48047 0.57422-1.2058 1.131-3.326 2.749-5.4609 4.3633l-4.1484 3.1367 5.1797 0.45117c1.6058 0.13986 3.305 0.29677 5.0488 0.17969 1.7439-0.11708 3.2719-0.48816 4.7109-0.74609 1.439-0.25793 2.4926-0.39266 3.9297 0.12891 1.437 0.52156 3.6117 2.0306 5.5684 2.9766 1.9567 0.94594 3.547 1.0453 4.9492 1.1484 1.4022 0.10315 3.2647 0.28247 5.4727 0.1875 2.208-0.09497 4.5309-0.42456 6.2988-0.38476 1.7679 0.03979 3.3593 0.49276 5.1816 0.44726 1.8223-0.0455 3.0607-0.59677 3.4121-0.62891 0.35136-0.03214 2.1633 0.21908 4.5879-1 1.2123-0.60954 2.5409-1.4793 3.8828-2.2852 1.3419-0.80588 2.7037-1.5313 3.5781-1.8047 1.7489-0.54677 2.399-0.0096 3.8457 0.66211 1.4467 0.67168 3.0003 1.1097 5.0254 1.0742 2.0251-0.03553 4.5328-0.42856 7.0273-0.80273l6.1465-0.92188-5.5312-2.834c-1.2161-0.62363-2.1922-1.1513-2.9219-1.8828-0.33819-0.33904-0.6313-0.75472-0.81836-1.0898 0.38918-0.17506 0.90129-0.38085 1.6719-0.73438 1.8505-0.84895 4.171-2.1835 6.2012-3.7402 2.0302-1.5568 3.6198-3.2348 5.1289-4.8223l3.0117-3.1699-4.3672-0.20703c-1.367-0.06458-2.6525-0.13064-3.8184-0.32812-1.1659-0.19748-2.2031-0.54624-2.8086-0.94726-0.60481-0.40058-1.1208-1.0529-1.7891-2.0098-0.11068-0.15849-0.1631-0.26178-0.26367-0.41211 0.08135-0.01922 0.10206-0.02161 0.1875-0.04297 1.2612-0.31531 2.5814-0.86503 3.8398-1.7754 1.2584-0.91036 2.3217-2.0432 3.3359-3.1016l4.6387-4.8398-6.5312 1.5059c-0.57326 0.13229-1.0523 0.24642-2.4629 0.47461-1.2829 0.20754-3.2247 0.40937-4.8672 0.35742 1.0499-0.5526 2.0751-1.0987 3.0137-1.834 1.2218-0.95727 2.3665-2.0697 3.4746-3.1406l3.959-3.8262-5.4902 0.39258c-1.1556 0.08259-2.3027 0.1656-4.1855 0.28516-0.62511 0.03968-1.4559 0.07396-2.2461 0.10938 0.5561-0.70266 1.0281-1.3388 1.3184-1.7949l2.0625-3.2441-3.8398 0.17188c-0.78173 0.03496-0.97693 0.0673-1.5449-0.17578-0.46032-0.197-1.5596-1.1186-1.6543-1.2402-0.06514-0.08368-0.26342-0.7629-0.25391-0.82617 0.03332-0.22171 0.43256-1.0654 1-2.2871 0.56744-1.2217 1.1272-2.6689 1.5371-4.1035 0.4099-1.4346 0.71167-3.0833 0.35156-4.9238-0.36011-1.8405-1.2445-3.692-2.5938-5.1621-1.3493-1.4701-3.1149-2.3442-4.957-2.6738-1.8422-0.32964-3.6366-0.16587-4.4629-0.10352-0.41316 0.03118-0.91924 0.05646-1.4824 0.29883-0.56318 0.24237-0.85662 0.50033-1.332 0.85156-0.95082 0.70246-2.9084 2.1451-4.7695 3.8281-1.7073 1.5439-2.7037 2.4783-2.9863 2.6953-0.0116-0.05666-0.04155-0.13462-0.04102-0.13867 4e-3 -0.03037 0.24697-0.80901 0.60156-1.3066 0.38845-0.54515 1.0114-1.1427 1.7773-1.8516l3.9219-3.6289-5.3398 0.16211c-0.24401 0.0074-0.43059 0.01405-0.75 0.0098-0.31132-0.0042-0.74572-0.02072-1.2637-0.08984-0.22102-0.0295-0.66787-0.10904-1.0801-0.19531 0.23174-0.21599 0.2099-0.19456 0.59375-0.47461l4.0879-2.9825-5.0215-0.61719c-0.83391-0.10274-1.492-0.18613-2.3184-0.44922-0.82634-0.26308-1.9854-0.77992-3.1777-1.3223zm0.12891 4.416c0.74473 0.33508 1.4902 0.65652 2.2344 0.92187-0.66237 1.6794 0.05356 3.2818 1.4355 4.1211 0.7813 0.47452 1.3261 0.54513 1.9375 0.68164 0.08344 0.01863 0.13132 0.02013 0.21289 0.03711-0.48742 0.81892-0.9264 1.6214-1.0371 2.457-0.14251 1.0756 0.08774 2.2266 0.86719 3.2598 0.36054 0.4779 0.86889 1.001 1.668 1.3398 0.79908 0.33885 1.9177 0.36664 2.8535-0.05469 1.7735-0.79852 2.6128-2.097 4.2852-3.6094 1.667-1.5075 3.514-2.8757 4.4648-3.5781 0.47541-0.35123 0.656-0.4457 0.53711-0.39453-0.11889 0.05117-0.21199 0.04681 0.20117 0.01563 0.82634-0.06236 2.3369-0.14771 3.457 0.05273 1.1201 0.20045 1.9749 0.63521 2.7148 1.4414 0.73993 0.80619 1.4141 2.1964 1.6152 3.2246 0.20117 1.0282 0.067 1.8739-0.27148 3.0586-0.33848 1.1847-0.84074 2.4831-1.3203 3.5156s-1.1139 1.9517-1.3281 3.377c-0.23801 1.5837 0.24344 2.8368 1.0547 3.8789 0.71904 0.92367 1.6947 1.6952 2.9395 2.2871-0.30742 0.35376-0.60951 0.68314-0.92773 1.1211-0.24147 0.33232-0.47883 0.65171-0.67383 1.2129-0.0975 0.28059-0.2066 0.64731-0.13086 1.1895 0.07574 0.54214 0.48774 1.2387 0.99414 1.5703 0.5415 0.35462 0.80493 0.35148 1.0723 0.39844s0.51333 0.06843 0.77539 0.08398c0.52412 0.03111 1.1042 0.02909 1.7207 0.01563 0.5224-0.01141 0.97408-0.04645 1.502-0.07227-0.51598 0.31295-0.96851 0.67315-1.5938 0.9668-0.61951 0.29096-1.3666 0.59783-2.0801 0.99609-0.35674 0.19913-0.71288 0.40668-1.0996 0.79102s-0.93992 1.1876-0.77148 2.209c0.16844 1.0213 0.7583 1.4707 1.1953 1.7773 0.43701 0.30664 0.87288 0.49772 1.3457 0.66797 0.9348 0.3366 2.0245 0.55084 3.2012 0.64258-0.23108 0.08294-0.45274 0.14628-0.73047 0.33008-0.40099 0.26537-0.88663 0.76285-1.0918 1.4297-0.41033 1.3336 0.09614 2.0452 0.42188 2.668 0.32573 0.6228 0.71283 1.1742 1.0645 1.6777 0.70324 1.007 1.5172 2.1657 2.8594 3.0547 1.2868 0.85227 2.7393 1.2587 4.168 1.5137-0.51824 0.47113-0.96996 1.0167-1.5391 1.4531-1.7248 1.3225-3.8937 2.5719-5.4355 3.2793-0.77095 0.35369-1.4511 0.59179-2.1562 0.95117-0.70518 0.35939-1.7112 1.0584-1.9883 2.2891-0.27542 1.2235 0.11406 2.0919 0.52539 2.8848 0.30407 0.58616 0.74754 1.0906 1.1836 1.5957-0.45674 0.03924-1.1786 0.17333-1.541 0.17969-1.5296 0.02683-2.0969-0.15871-3.2695-0.70312-1.1726-0.54442-3.6405-1.8158-6.7246-0.85156-1.5421 0.48212-3.0264 1.3424-4.4434 2.1934-1.417 0.85098-2.7618 1.7086-3.6211 2.1406-1.7185 0.86408-1.6426 0.4514-3.1562 0.58984-1.5137 0.13844-2.2661 0.59325-3.1465 0.61523-0.88037 0.02198-2.7031-0.39574-4.9922-0.44726-2.2891-0.05152-4.6674 0.30529-6.5605 0.38672-1.8931 0.08143-3.5326-0.07326-5.0059-0.18164-1.4733-0.10839-2.1312-0.09613-3.5039-0.75977-1.3727-0.66364-3.6078-2.2871-5.9434-3.1348-2.3355-0.84766-4.4183-0.59015-6-0.30664-1.1827 0.21199-2.1818 0.37694-3.1953 0.51758 0.39768-0.33666 0.96729-0.72856 1.3066-1.0469 1.5025-1.4093 2.2646-2.6106 2.5645-3.0703 0.07496-0.11493 0.176-0.22818 0.33203-0.56836 0.15603-0.34018 0.36902-1.3002-0.08594-2.0645-0.45496-0.76429-0.96635-0.89714-1.2695-1.0098-0.30318-0.11263-0.54754-0.16845-0.84375-0.23633-1.1848-0.27152-3.3368-0.65793-4.9004-1.0488-1.5636-0.39094-2.5721-0.78072-3.7812-1.2773-0.78674-0.32313-1.5093-0.64553-2.252-0.9707 0.31118-0.10954 0.66456-0.20083 0.96484-0.31445 1.728-0.65385 3.1791-1.3571 4.4785-2.041 1.2994-0.68392 2.4707-1.3425 3.0859-1.6016 0.15381-0.06476 0.31175-0.12154 0.49414-0.19141s0.34868-0.07615 0.80859-0.41406c0.22996-0.16895 0.65816-0.49657 0.82812-1.2461 0.16996-0.74952-0.20156-1.5305-0.47656-1.8437-0.55-0.62645-0.79576-0.60694-1.0859-0.73242-1.1295-0.48844-3.0394-1.0635-4.4434-1.6543 0.65011-0.26867 1.3592-0.5433 1.9336-0.79297 1.695-0.73676 3.0948-1.4139 3.8242-1.7676 0.3647-0.17682 0.53971-0.0027 1.2773-0.8457 0.36882-0.42152 0.6119-1.6633 0.34961-2.2578-0.26229-0.5945-0.48567-0.70658-0.61524-0.82617-0.51825-0.47839-1.0773-0.86342-1.6699-1.3672-0.59267-0.50377-1.1557-1.0474-1.7578-1.7812-0.04051-0.04938-0.09348-0.13387-0.13477-0.18555 0.1556-0.04169 0.27971-0.02198 0.4375-0.07227 1.3629-0.43434 2.5049-1.111 3.625-1.7578 0.56007-0.3234 1.1627-0.66968 1.709-1.0391 0.27314-0.18469 0.53299-0.3702 0.80078-0.61719s0.63953-0.47434 0.84961-1.3613c0.21007-0.88699-0.4019-1.9631-0.83594-2.2988-0.1635-0.12647-0.24051-0.12179-0.36914-0.18945 0.38234-0.57907 0.67668-1.258 0.72461-2.0098 0.13105-2.0554-0.57013-4.2244-0.99805-5.9473-0.42792-1.7228-0.6884-2.8619-0.90039-3.957-0.21199-1.0951-0.38291-2.1841-0.59375-3.4043-0.21084-1.2202-0.43903-2.49-0.50391-3.373-0.0058-0.07922 0.01159-0.13697 0.0078-0.21289 0.19165 0.05401 0.21855 0.0026 0.46875 0.08594 1.3119 0.43708 3.5103 1.3843 5.1816 2.1895 1.6713 0.80516 2.8713 1.4818 4.1562 2.2031 1.2848 0.72128 2.7497 1.5933 4.6562 1.7988 1.9066 0.2055 3.4721-0.34217 3.9395-0.41406 0.22355-0.03439 0.30774-0.02606 0.47656-0.01367 0.08441 0.0062 0.17234 0.02992 0.49023 0.01367 0.15894-0.0081 0.3948-0.02003 0.74023-0.16406 0.34544-0.14403 0.79228-0.49805 1.0215-0.91016 0.45931-0.8258 0.26998-1.2717 0.21289-1.543-0.05709-0.27127-0.12341-0.43593-0.1875-0.59375-0.12818-0.31563-0.2616-0.57664-0.38867-0.83203-0.13614-0.2736-0.45327-0.7417-0.67969-1.127 0.45692-0.0031 0.88656 0.01128 1.3555-0.01953 0.86349-0.05674 1.5774-0.04833 2.5605-0.51953 0.9966-0.47765 1.5875-1.4469 1.7578-2.3223 0.15182-0.78017-0.02701-1.5294-0.35156-2.2422 0.92502-0.31434 1.6984-0.7473 2.4766-1.1621z" fill="#64a98a" stop-color="#000000" stroke-linecap="round"/>
 <g fill="#387966">
  <path d="m66.423 42.192c-0.0283 2.4284-8.1314 3.6356-9.0459 1.3809-0.51348-1.266-1.4777-7.4292-0.2465-13.163 0.3942-1.8359 9.4521-0.08984 9.2348 1.6665z" stop-color="#000000"/>
  <path d="m58.676 28.387c-0.53761 0.03999-1.0368 0.11905-1.5332 0.33594-0.49636 0.21689-1.0901 0.68616-1.248 1.4219-0.64934 3.0241-0.71348 6.098-0.55664 8.6016s0.44536 4.2627 0.86719 5.3027c0.48796 1.2031 1.6467 1.6407 2.7344 1.8438 1.0877 0.20309 2.2961 0.17513 3.4824-0.0039 1.1863-0.17904 2.3383-0.50436 3.3047-1.0254 0.96635-0.52103 1.9457-1.347 1.9609-2.6562v-0.01172l-0.05664-10.127-0.0098 0.16211c0.09449-0.76363-0.32443-1.3701-0.71094-1.7305-0.3865-0.36035-0.82167-0.60652-1.3086-0.83203-0.97384-0.45103-2.1681-0.7872-3.3926-1.0156-1.2245-0.22842-2.458-0.3456-3.5332-0.26562zm0.18945 2.5234c0.72722-0.05409 1.8187 0.03037 2.8809 0.22852 1.0621 0.19814 2.1153 0.51322 2.791 0.82617 0.29388 0.13611 0.46694 0.25694 0.56445 0.33398l0.05664 9.8789c0.0011-0.09504-0.04329 0.13918-0.63281 0.45703-0.58953 0.31786-1.5251 0.60748-2.4824 0.75195-0.95731 0.14448-1.9489 0.14833-2.6387 0.01953-0.68976-0.1288-0.88619-0.38433-0.85547-0.30859-0.09165-0.22597-0.54166-2.1818-0.6875-4.5098-0.13989-2.2331-0.05562-4.9671 0.46289-7.5781 0.12306-0.03532 0.26357-0.07897 0.54102-0.09961z" stop-color="#000000"/>
  <path d="m40.539 43.364c-0.0283 2.4284-8.4782 1.8092-9.3927-0.44552-0.51348-1.266-1.2906-5.2777-0.05941-11.011 0.3942-1.8359 9.557-3.397 9.3397-1.6406z" stop-color="#000000"/>
  <path d="m39.223 28.264c-1.0204-0.08796-2.2187 0.01526-3.4512 0.22852-1.2324 0.21326-2.4735 0.53903-3.5117 0.96875-0.51912 0.21486-0.98868 0.44989-1.4062 0.76172-0.41758 0.31183-0.85291 0.71474-1.0039 1.418-1.2795 5.9591-0.57125 10.037 0.125 11.754 0.47607 1.1738 1.509 1.68 2.5859 2.0742 1.0769 0.39417 2.3151 0.61836 3.5391 0.69141 1.224 0.07304 2.4182 0.0043 3.459-0.31445 0.52041-0.15938 1.0162-0.37976 1.4512-0.76953 0.43497-0.38977 0.78711-1.0267 0.79492-1.6973v-0.01367l-0.11328-13.109-0.0098 0.16602c0.04614-0.37289-0.05091-0.81899-0.25977-1.1387-0.20885-0.31968-0.47905-0.51373-0.72656-0.64453-0.49503-0.2616-0.96247-0.33102-1.4727-0.375zm-0.2168 2.5195c0.10357 0.0089 0.08516 0.01439 0.16211 0.0293l0.10547 12.4c-0.0563 0.0421-0.19204 0.13233-0.45508 0.21289-0.58008 0.17766-1.562 0.26904-2.5684 0.20898-1.0063-0.06005-2.0529-0.26279-2.8184-0.54297-0.7655-0.28018-1.1321-0.69486-1.1133-0.64844-0.33071-0.81536-1.1769-4.7629 0.0059-10.271-0.05245 0.24427-0.11515 0.1962 0.04297 0.07813 0.15812-0.11808 0.46744-0.29091 0.85938-0.45312 0.78387-0.32444 1.8962-0.6236 2.9766-0.81055 1.0804-0.18695 2.1539-0.25906 2.8027-0.20312z" stop-color="#000000"/>
  <g>
   <path d="m26.778 71.005c-1.1632 1.1136-2.3263 2.2271-2.9859 3.0957-0.65954 0.8686-0.81545 1.4922-0.82332 2.0498-0.0079 0.55756 0.18627 1.2384 0.63731 1.5224 0.45103 0.28399 1.2558 0.48839 2.5677 0.41855 1.3119-0.06984 3.1421-0.41107 4.7744-0.97146 1.6323-0.56038 3.0666-1.3399 4.501-2.1195"/>
   <path d="m67.632 70.327c1.243 1.1136 2.4861 2.2271 3.1909 3.0957 0.70482 0.8686 0.87143 1.4922 0.87984 2.0498 0.0084 0.55756-0.19906 1.2384-0.68106 1.5224-0.482 0.28399-1.342 0.48839-2.744 0.41855-1.402-0.06984-3.3579-0.41107-4.9697-0.92468-1.6118-0.51361-2.8796-1.1996-4.1474-1.8856"/>
   <path d="m19.257 7.5187c0.10656 1.6349 0.21311 3.2698 0.40098 4.8256s0.45735 3.0343 0.78369 4.2646c0.32634 1.2304 0.71128 2.219 1.2297 3.3393 0.51838 1.1203 1.1738 2.3797 1.7298 3.2501 0.55598 0.87038 1.0169 1.3601 1.7017 1.3526 0.68478-0.0075 1.6113-0.52226 2.5753-1.2543 0.96395-0.73202 2.0033-1.7034 2.7642-2.4649 0.76085-0.76156 1.2582-1.3296 1.7004-2.0137 0.44218-0.68406 0.84653-1.5041 1.0153-2.2705 0.16876-0.76643 0.07598-1.7598-0.538-2.4316-0.61398-0.67187-1.796-1.5142-3.0951-2.3067-1.299-0.79256-2.7155-1.5358-4.0085-2.1318-1.2929-0.59607-2.4623-1.045-3.485-1.3802-1.0226-0.33525-1.8986-0.55681-2.7745-0.77838z"/>
   <path d="m62.205 13.173c0.37354-0.36287 1.1203-1.0883 1.8253-1.6924 0.70496-0.60407 1.3668-1.0859 2.0117-1.45 0.64487-0.36414 1.2666-0.60723 1.9943-0.84206 0.7277-0.23482 1.5568-0.45988 2.3437-0.59775 0.78689-0.13787 1.5267-0.18748 2.1807-0.15098 0.65405 0.0365 1.2269 0.15953 1.7808 0.39738 0.55392 0.23784 1.0902 0.59078 1.5309 1.1036 0.44065 0.51279 0.78586 1.1858 1.0754 1.9077s0.52519 1.4975 0.62494 2.2269 0.06464 1.442-0.04058 2.1721c-0.10521 0.73011-0.28344 1.5189-0.49056 2.2244-0.20712 0.70547-0.44807 1.3456-0.90943 2.2671s-1.1422 2.1263-1.8514 2.6173c-0.70914 0.49098-1.5055 0.22988-2.2232-0.10279-0.71774-0.33267-1.5089-0.78713-2.5779-1.4924-1.069-0.70522-2.4232-1.6657-3.5148-2.5327s-1.927-1.6454-2.5827-2.3355c-0.65572-0.6901-1.1363-1.296-1.3811-1.7694-0.24484-0.47339-0.25398-0.81425-0.24295-1.0568 0.01103-0.24253 0.0422-0.3867 0.0578-0.45883 0.0156-0.07213 0.01559-0.07213 0.38913-0.435z"/>
  </g>
 </g>
</svg>
